<?xml version="1.0" encoding="UTF-8" standalone="no"?>
<!-- Created with Inkscape (http://www.inkscape.org/) -->

<svg
   xmlns:dc="http://purl.org/dc/elements/1.1/"
   xmlns:cc="http://creativecommons.org/ns#"
   xmlns:rdf="http://www.w3.org/1999/02/22-rdf-syntax-ns#"
   xmlns:svg="http://www.w3.org/2000/svg"
   xmlns="http://www.w3.org/2000/svg"
   xmlns:sodipodi="http://sodipodi.sourceforge.net/DTD/sodipodi-0.dtd"
   xmlns:inkscape="http://www.inkscape.org/namespaces/inkscape"
   width="1546"
   height="1651"
   viewBox="0 0 409.04707 436.82523"
   version="1.1"
   id="svg6510"
   inkscape:version="0.92.5 (2060ec1f9f, 2020-04-08)"
   sodipodi:docname="bannerLoginsvg.svg"
   inkscape:export-filename="/home/infor21/Documentos/projetoSisCO/siscoWeb/sisco/public/img/bannerLoginsvg.png"
   inkscape:export-xdpi="96"
   inkscape:export-ydpi="96">
  <defs
     id="defs6504" />
  <sodipodi:namedview
     id="base"
     pagecolor="#ffffff"
     bordercolor="#666666"
     borderopacity="1.0"
     inkscape:pageopacity="0.0"
     inkscape:pageshadow="2"
     inkscape:zoom="0.35"
     inkscape:cx="503.81998"
     inkscape:cy="1040.3481"
     inkscape:document-units="mm"
     inkscape:current-layer="layer1"
     showgrid="false"
     units="px"
     inkscape:window-width="1920"
     inkscape:window-height="1011"
     inkscape:window-x="0"
     inkscape:window-y="0"
     inkscape:window-maximized="1" />
  <metadata
     id="metadata6507">
    <rdf:RDF>
      <cc:Work
         rdf:about="">
        <dc:format>image/svg+xml</dc:format>
        <dc:type
           rdf:resource="http://purl.org/dc/dcmitype/StillImage" />
        <dc:title></dc:title>
      </cc:Work>
    </rdf:RDF>
  </metadata>
  <g
     inkscape:label="Camada 1"
     inkscape:groupmode="layer"
     id="layer1"
     transform="translate(0,139.8269)">
    <path
       style="fill:#3f3d56;stroke-width:0.26458332"
       inkscape:connector-curvature="0"
       d="M 361.31758,63.63667 H 54.528999 c -4.11218,0 -7.457669,-3.345488 -7.457669,-7.458105 V -48.549636 c 0,-4.112181 3.345489,-7.457669 7.457669,-7.457669 H 361.31758 c 4.11218,0 7.45767,3.345488 7.45767,7.457669 V 56.178565 c 0,4.112617 -3.34549,7.458105 -7.45767,7.458105 z M 54.528999,-55.118185 c -3.621817,0 -6.568548,2.946731 -6.568548,6.568549 V 56.178565 c 0,3.622036 2.946731,6.568985 6.568548,6.568985 H 361.31758 c 3.62182,0 6.56855,-2.946949 6.56855,-6.568985 V -48.549636 c 0,-3.621818 -2.94673,-6.568549 -6.56855,-6.568549 z"
       id="path7287" />
    <rect
       style="fill:#e6e6e6;stroke-width:0.26458332"
       x="12.247204"
       id="uuid-dac6dc9f-03bc-4283-a90c-97bcdcbf45dc"
       y="188.74843"
       width="378.33575"
       height="0.74819463" />
    <rect
       style="fill:#e6e6e6;stroke-width:0.26458332"
       x="12.247204"
       id="uuid-2f9646f7-bb94-4523-8d2e-fd8f0877664c"
       y="150.51625"
       width="378.33575"
       height="0.74819463" />
    <path
       d="m 184.66545,67.488112 c 0.27167,3.414186 2.25351,6.041492 4.42629,5.868242 2.17278,-0.173249 3.71334,-3.081143 3.44111,-6.496512 -0.09,-1.365791 -0.50582,-2.690162 -1.21261,-3.862307 l -1.33376,-14.451511 -6.76833,0.770445 2.03343,14.164832 c -0.51257,1.269632 -0.71356,2.643572 -0.58613,4.006811 z"
       id="uuid-bb35f39c-94aa-41c4-b5d9-34ca9a9e88f1-137"
       inkscape:connector-curvature="0"
       style="fill:#ffb6b6;stroke-width:0.26458332" />
    <path
       id="path7292"
       d="m 176.58002,0.06650079 c 0,0 6.32691,-3.34928909 9.53507,1.65578631 3.20816,5.0050754 5.42237,59.1358649 5.42237,59.1358649 l -8.89201,0.949353 -1.68563,-38.144443 -4.37979,-23.59655677 z"
       inkscape:connector-curvature="0"
       style="fill:#e6e6e6;stroke-width:0.26458332" />
    <g
       id="g7298"
       style="stroke-width:0.59515762"
       transform="matrix(0.4445601,0,0,0.4445601,12.247204,-56.007305)">
      <polygon
         id="polygon7294"
         points="357.21344,413.50859 340.11158,413.50978 340.11391,458.20431 351.70127,458.20318 "
         style="fill:#ffb6b6;stroke-width:0.59515762" />
      <path
         id="path7296"
         d="m 379.81365,457.94146 v 0 c 0.36079,0.60764 0.55116,2.56882 0.55116,3.27545 v 0 c 0,2.172 -1.76073,3.9328 -3.9328,3.9328 h -35.88469 c -1.48173,0 -2.68297,-1.20117 -2.68297,-2.68297 v -1.49399 c 0,0 -1.77518,-4.49023 1.8796,-10.02469 0,0 4.54241,4.33356 11.32993,-2.45396 l 2.00158,-3.62601 14.48869,10.59629 8.03086,0.98852 c 1.75699,0.21625 3.31472,-0.0336 4.21849,1.48856 h 1.4e-4 z"
         inkscape:connector-curvature="0"
         style="fill:#2f2e41;stroke-width:0.59515762" />
    </g>
    <g
       id="g7304"
       style="stroke-width:0.59515762"
       transform="matrix(0.4445601,0,0,0.4445601,12.247204,-56.007305)">
      <polygon
         id="polygon7300"
         points="412.67359,408.74865 396.10412,412.98257 407.16841,456.28595 418.39497,453.41695 "
         style="fill:#ffb6b6;stroke-width:0.59515762" />
      <path
         id="path7302"
         d="m 445.56792,446.20546 v 0 c 0.49996,0.49944 1.1698,2.35248 1.3447,3.03713 v 0 c 0.53758,2.10442 -0.73257,4.24622 -2.83706,4.78381 l -34.76822,8.88157 c -1.43562,0.36673 -2.89679,-0.49976 -3.26354,-1.93545 l -0.36977,-1.44751 c 0,0 -2.83129,-3.91116 -0.66002,-10.178 0,0 5.47365,3.07447 10.37006,-5.1818 l 1.04186,-4.0086 16.66052,6.68062 8.02566,-1.0299 c 1.75585,-0.22534 3.20328,-0.85292 4.45567,0.39816 z"
         inkscape:connector-curvature="0"
         style="fill:#2f2e41;stroke-width:0.59515762" />
    </g>
    <polygon
       id="polygon7306"
       points="329.97801,112.53821 336.50788,96.59024 354.44935,94.59675 358.32324,117.42831 330.5274,116.5252 "
       style="fill:#ffb6b6;stroke-width:0.59515762"
       transform="matrix(0.4445601,0,0,0.4445601,12.247204,-56.007305)" />
    <polygon
       id="polygon7308"
       points="329.97801,112.53821 336.50788,96.59024 354.44935,94.59675 358.32324,117.42831 330.5274,116.5252 "
       style="opacity:0.1;stroke-width:0.59515762"
       transform="matrix(0.4445601,0,0,0.4445601,12.247204,-56.007305)" />
    <polygon
       id="polygon7310"
       points="418.97897,436.4813 403.15657,332.81951 391.32902,237.13171 384.15521,232.6999 349.46561,213.20976 309.59569,229.15772 301.6217,251.08618 307.60219,263.04715 337.50463,436.4813 357.38465,436.4813 353.4526,282.98211 399.30301,436.4813 "
       style="fill:#2f2e41;stroke-width:0.59515762"
       transform="matrix(0.4445601,0,0,0.4445601,12.247204,-56.007305)" />
    <polygon
       id="polygon7312"
       points="368.40382,208.22602 360.42983,244.10894 348.46886,246.10244 332.52089,208.22602 "
       style="fill:#e6e6e6;stroke-width:0.59515762"
       transform="matrix(0.4445601,0,0,0.4445601,12.247204,-56.007305)" />
    <polygon
       id="polygon7314"
       points="360.42983,244.10894 352.45585,226.16748 348.46886,246.10244 306.60544,232.62639 312.58593,208.22602 306.60544,128.48618 327.71662,114.41198 330.5274,112.53821 356.44284,114.53171 358.71546,115.76767 374.38431,124.49919 378.3713,190.28455 384.35179,234.14146 "
       style="fill:#008080;stroke-width:0.59515762"
       transform="matrix(0.4445601,0,0,0.4445601,12.247204,-56.007305)" />
    <polygon
       id="polygon7316"
       points="347.47211,163.37236 327.71662,114.41198 330.5274,112.53821 356.44284,114.53171 358.71546,115.76767 "
       style="fill:#e6e6e6;stroke-width:0.59515762"
       transform="matrix(0.4445601,0,0,0.4445601,12.247204,-56.007305)" />
    <polygon
       id="polygon7318"
       points="349.46561,112.53821 339.49813,112.53821 335.51114,119.4047 339.49813,121.69353 337.50463,163.49619 345.47862,174.33659 353.4526,158.31478 347.47211,121.69353 "
       style="fill:#83c5be;stroke-width:0.59515762;fill-opacity:1"
       transform="matrix(0.4445601,0,0,0.4445601,12.247204,-56.007305)" />
    <circle
       id="circle7320"
       r="8.4191723"
       cy="-16.168938"
       cx="165.83321"
       style="fill:#ffb6b6;stroke-width:0.26458332" />
    <path
       id="path7322"
       d="m 160.45276,-15.430415 1.81912,0.793913 0.79392,-4.763479 c 0,0 3.17565,-1.587827 5.55739,-0.793914 2.38174,0.793914 6.3513,0 6.3513,0 0,0 0,-7.939132 -5.55739,-7.939132 -5.55739,0 -11.11478,0.793914 -11.11478,3.175653 0,2.38174 -2.38174,4.763479 -2.38174,4.763479 0,0 -3.17566,4.76348 0,7.939133 3.17565,3.1756524 4.76348,3.1756524 4.76348,3.1756524 z"
       inkscape:connector-curvature="0"
       style="fill:#2f2e41;stroke-width:0.26458332" />
    <path
       d="m 144.11653,67.23903 c -0.0923,3.423735 1.5994,6.246585 3.77829,6.304982 2.1789,0.0584 4.01946,-2.669521 4.11135,-6.094483 0.0555,-1.367632 -0.21737,-2.728661 -0.79573,-3.969215 l 0.20797,-14.511438 -6.81187,0.04755 0.51818,14.300654 c -0.64446,1.208039 -0.99017,2.552882 -1.00819,3.92194 z"
       id="uuid-97233535-ec91-4408-928f-bf1e5273ca3e-138"
       inkscape:connector-curvature="0"
       style="fill:#ffb6b6;stroke-width:0.26458332" />
    <path
       id="path7325"
       d="m 152.54412,-0.67655919 c 0,0 -5.76049,-1.77245671 -8.41918,3.54491339 -2.65868,5.3173744 0.88623,59.3773278 0.88623,59.3773278 h 8.94254 l -2.37336,-38.107839 0.96377,-24.81440664 z"
       inkscape:connector-curvature="0"
       style="fill:#e6e6e6;stroke-width:0.26458332" />
    <path
       id="path7329"
       d="m 373.52217,100.03694 -21.48189,-6.576102 c -0.47515,-0.145442 -0.97375,-0.198541 -1.46889,-0.156396 l -108.8736,9.265828 c -1.55233,0.1321 -1.94247,2.22588 -0.5419,2.90821 l 3.48744,1.699 h -0.093 v 81.33301 h 3.28618 v -79.77735 l 10.92983,5.32478 c 0.83629,0.40741 1.76955,0.57371 2.69507,0.48022 l 1.16292,-0.11746 v 74.08981 h 3.28619 v -74.42176 l 84.20842,-8.50588 v 82.92764 h 3.28619 V 105.2509 l 13.96627,-1.41073 v 84.67032 h 3.28619 v -85.00226 l 2.54795,-0.25737 c 1.78873,-0.18069 2.03571,-2.68769 0.31663,-3.21392 z"
       inkscape:connector-curvature="0"
       style="fill:#3f3d56;stroke-width:0.26458332" />
    <path
       id="path7331"
       d="m 273.30443,102.2482 c 2.05386,0 32.45105,-3.696953 32.45105,-3.696953 l 4.5185,6.161593 -31.62951,6.16159 z"
       inkscape:connector-curvature="0"
       style="fill:#ffffff;stroke-width:0.26458332" />
    <polygon
       style="fill:#a0616a;stroke-width:0.59515762"
       points="662.26939,542.91667 650.39,542.89512 644.81757,497.06436 662.35045,497.09569 "
       id="polygon7333"
       transform="matrix(0.4445601,0,0,0.4445601,12.247204,-56.007305)" />
    <path
       style="fill:#008080;stroke-width:0.26458332"
       inkscape:connector-curvature="0"
       d="m 288.57223,185.20092 v 0 c -0.16491,0.27666 -0.25321,1.17034 -0.25377,1.4924 v 0 c -0.002,0.98992 0.7994,1.7938 1.78935,1.79551 l 16.35497,0.0281 c 0.67532,0.001 1.22374,-0.54535 1.2249,-1.2207 l 10e-4,-0.68091 c 0,0 0.81257,-2.0451 -0.84882,-4.57037 0,0 -2.07365,1.97153 -5.16185,-1.12729 l -0.90942,-1.65418 -6.61172,4.81808 -3.66096,0.44425 c -0.80094,0.0972 -1.51071,-0.0179 -1.9238,0.67513 h -6e-5 z"
       id="path7335" />
    <polygon
       style="fill:#a0616a;stroke-width:0.59515762"
       points="726.02735,521.60456 716.65452,528.67376 684.92538,495.88695 698.75852,485.45309 "
       id="polygon7339"
       transform="matrix(0.4445601,0,0,0.4445601,12.247204,-56.007305)" />
    <path
       style="fill:#008080;stroke-width:0.26458332"
       inkscape:connector-curvature="0"
       d="m 320.66381,186.55138 v 0 c 0.0351,0.31635 0.49861,1.07318 0.69029,1.32726 v 0 c 0.58916,0.78099 1.69988,0.93652 2.4809,0.34735 l 12.90311,-9.73379 c 0.53278,-0.40193 0.6389,-1.15968 0.23696,-1.69249 l -0.40525,-0.53719 c 0,0 -0.57968,-2.09608 -3.39507,-3.09475 0,0 -0.45783,2.79037 -4.73955,2.19089 l -1.70328,-0.76087 -2.33545,7.74021 -2.61953,2.53382 c -0.57311,0.55435 -1.20098,0.88706 -1.11307,1.67953 l -5e-5,4e-5 z"
       id="path7341" />
    <path
       id="path7345"
       d="m 323.9728,70.576649 c 0,4.87008 -3.94798,8.818058 -8.81806,8.818058 -4.87008,0 -8.81806,-3.947978 -8.81806,-8.818058 0,-4.87008 3.94798,-8.818059 8.81806,-8.818059 4.87008,0 8.81806,3.947979 8.81806,8.818059 z"
       inkscape:connector-curvature="0"
       style="fill:#a0616a;stroke-width:0.26458332" />
    <path
       id="path7347"
       d="m 323.14199,121.41961 c 0,0 -32.46707,-1.83776 -34.30482,1.83776 -1.83776,3.67551 9.93517,54.16226 9.93517,54.16226 l 10.50342,-2.20135 -5.12394,-35.42109 c 0,0 27.09301,7.17523 30.76853,-1.40098 3.67552,-8.57621 2.61742,-11.76962 2.61742,-11.76962 z"
       inkscape:connector-curvature="0"
       style="fill:#2f2e41;stroke-width:0.26458332" />
    <path
       id="path7349"
       d="m 331.46037,115.25 c 0,0 -31.79661,6.81636 -32.59661,10.84709 -0.79999,4.03073 23.90901,49.60461 23.90901,49.60461 l 9.54692,-4.90144 -14.31149,-32.8038 c 0,0 28.02595,-0.24741 29.30183,-9.4904 1.27588,-9.24299 -0.58929,-12.04274 -0.58929,-12.04274 z"
       inkscape:connector-curvature="0"
       style="fill:#2f2e41;stroke-width:0.26458332" />
    <path
       id="path7351"
       d="M 335.08742,80.682629 H 319.81136 L 309.3588,97.835043 c 0,0 -2.45034,11.084437 0,12.280667 2.45035,1.19623 2.45035,14.06054 2.45035,14.06054 l 25.72861,2.45035 c 0,0 3.67552,-38.592934 2.45035,-42.26845 -1.22517,-3.675516 -4.90069,-3.675516 -4.90069,-3.675516 z"
       inkscape:connector-curvature="0"
       style="fill:#83c5be;stroke-width:0.26458332;fill-opacity:1" />
    <path
       id="path7353"
       d="m 310.89027,92.015484 -1.53148,18.100176 -17.22558,-7.31067 -4.11116,-2.0676 c -0.80523,-1.049999 -1.85019,-1.891853 -3.04748,-2.455213 -2.97738,-1.451044 -6.13825,-1.091618 -7.06144,0.802493 -0.92321,1.89411 0.74124,4.60545 3.71777,6.05559 1.18177,0.5961 2.48915,0.90037 3.81273,0.88748 l 12.02889,6.83206 0.0142,-0.0267 0.0533,0.0952 18.86351,7.8787 4.34029,-23.761345 -9.85355,-5.030162 z"
       inkscape:connector-curvature="0"
       style="fill:#a0616a;stroke-width:0.26458332" />
    <path
       id="path7355"
       d="m 309.05251,71.800132 c 0,0 -9.18879,1.225172 -5.51327,-6.738447 0,0 -0.56041,-4.317043 2.17014,-4.608865 2.73055,-0.291823 6.40606,-5.192511 6.40606,-5.192511 0,0 8.42668,-4.288102 12.78955,0 4.36287,4.288102 17.22717,29.404134 17.22717,29.404134 l -8.5762,9.18879 c 0,0 -5.15593,-13.554072 -11.15417,-11.98402 -5.99824,1.570053 -11.51152,6.251276 -11.51152,6.251276 0,0 -6.08727,-3.046348 -3.34993,-5.701541 2.73735,-2.655193 1.51217,-10.618816 1.51217,-10.618816 z"
       inkscape:connector-curvature="0"
       style="fill:#2f2e41;stroke-width:0.26458332" />
    <path
       id="path7357"
       d="m 321.30423,85.277024 c 0,0 -4.2881,-5.513274 -7.35103,-1.225172 -3.06293,4.288103 -5.51327,9.801377 -5.51327,9.801377 l 12.25172,4.288102 0.61259,-12.864311 z"
       inkscape:connector-curvature="0"
       style="fill:#008080;stroke-width:0.26458332;fill-opacity:1" />
    <path
       id="path7359"
       d="m 367.82227,187.29111 -14.23437,-45.24297 0.002,-1.6e-4 h 0.0329 l -0.0575,-0.074 -10e-4,-0.002 -1.01387,-3.22255 4.5e-4,-4e-4 c 1.5445,-1.33091 2.59608,-3.23278 2.80558,-5.42224 l -6.50665,-35.786472 c 0.44775,-4.699267 -3.15474,-8.806993 -7.87451,-8.975424 l -14.68102,-0.03694 c -4.17344,-0.147874 -7.78826,2.867186 -8.39619,6.999586 l -0.32451,2.193513 -4.49796,30.598457 c -0.16432,1.10084 -0.0986,2.18534 0.16021,3.19994 l -3.2369,0.42311 -0.98175,0.13142 -3.88181,0.50525 -0.0123,0.004 -0.48471,0.0616 h -0.52581 v 13.14473 h 0.0329 v 42.01386 c 0,0.27107 0.22181,0.4929 0.49293,0.4929 0.27521,0 0.49702,-0.22183 0.49702,-0.4929 v -42.01386 h 5.75904 l 5.74671,41.96451 c 0.037,0.24651 0.24646,0.42722 0.49293,0.42722 0.0205,0 0.0452,0 0.0657,-0.004 0.27112,-0.0369 0.46006,-0.28752 0.42311,-0.55864 l -5.72618,-41.82898 h 27.63267 c 2.74371,0 5.28614,-0.87069 7.35633,-2.36154 l 10.95598,44.24908 c 0.057,0.22394 0.25823,0.37272 0.47917,0.37272 0.0403,0 0.0814,-0.005 0.12237,-0.0152 0.26476,-0.0674 0.42481,-0.33677 0.35752,-0.60152 l -11.0619,-44.67684 c 0.14712,-0.12265 0.29426,-0.25342 0.43324,-0.38831 l 4.39805,-0.25864 14.30848,45.47854 c 0.0664,0.21116 0.26149,0.34645 0.4718,0.34645 0.0492,0 0.0992,-0.007 0.14857,-0.023 0.26067,-0.0821 0.40548,-0.35998 0.32348,-0.62062 z m -16.21222,-47.83919 c 0.0369,-0.0206 0.0698,-0.0452 0.1027,-0.0658 l 2.4e-4,-2e-4 0.10571,0.33596 z"
       inkscape:connector-curvature="0"
       style="fill:#000080;stroke-width:0.26458332" />
    <g
       id="g7369"
       style="stroke-width:0.59515762"
       transform="matrix(0.4445601,0,0,0.4445601,12.247204,-56.007305)">
      <polygon
         id="polygon7363"
         points="201.87509,366.35537 171.56525,401.18319 171.56525,374.77477 193.11428,361.07087 "
         style="fill:#ffb6b6;stroke-width:0.59515762" />
      <path
         id="path7365"
         d="m 142.09734,321.73254 c 0,0 -14.31298,3.36776 -7.57746,22.73238 6.73552,19.36462 28.62597,59.77775 35.36149,57.25193 6.73552,-2.52582 7.57746,-27.78403 7.57746,-27.78403 0,0 -0.84194,0.84194 -4.2097,-2.52582 -3.36776,-3.36776 -3.36776,-1.82973 -3.36776,-5.54554 0,-3.71581 -2.75454,-6.47034 -2.75454,-6.47034 l -3.13904,-6.50681 c 0,0 0,-30.30985 -12.6291,-31.99373 -12.6291,-1.68388 -9.26134,0.84194 -9.26134,0.84194 z"
         inkscape:connector-curvature="0"
         style="fill:#e6e6e6;stroke-width:0.59515762" />
      <ellipse
         id="ellipse7367"
         transform="rotate(-45,202.71704,359.19888)"
         ry="8.8403702"
         rx="14.31298"
         cy="359.19888"
         cx="202.71703"
         style="fill:#ffb6b6;stroke-width:0.59515762" />
    </g>
    <polygon
       style="fill:#000080;stroke-width:0.59515762"
       points="86.34807,433.29001 101.05215,457.62779 186.74142,452.55742 163.92475,423.14927 "
       id="polygon7371"
       transform="matrix(0.4445601,0,0,0.4445601,12.247204,-56.007305)" />
    <path
       style="fill:#999999;stroke-width:0.26458332"
       inkscape:connector-curvature="0"
       d="m 62.01669,187.22035 c -0.221885,0 -0.415157,-0.16377 -0.446085,-0.38962 L 50.187474,103.69484 c -0.03379,-0.24676 0.138788,-0.47415 0.385438,-0.50783 0.24654,-0.0357 0.473933,0.13868 0.50783,0.38544 l 11.383131,83.13589 c 0.03379,0.24676 -0.138788,0.47415 -0.385438,0.50783 -0.02081,0.003 -0.04139,0.004 -0.06175,0.004 z"
       id="path7373" />
    <path
       style="fill:#999999;stroke-width:0.26458332"
       inkscape:connector-curvature="0"
       d="m 50.634111,187.32601 c -0.248963,0 -0.450815,-0.20186 -0.450815,-0.45082 v -83.22547 c 0,-0.24897 0.201857,-0.45082 0.450815,-0.45082 0.248962,0 0.450815,0.20186 0.450815,0.45082 v 83.22547 c 0,0.24897 -0.201857,0.45082 -0.450815,0.45082 z"
       id="path7375" />
    <path
       style="fill:#999999;stroke-width:0.26458332"
       inkscape:connector-curvature="0"
       d="m 107.77505,186.99516 c -0.19162,0 -0.36937,-0.12327 -0.4299,-0.31566 L 80.408835,101.06412 c -0.07473,-0.23751 0.05723,-0.49066 0.294747,-0.5655 0.237404,-0.0744 0.490661,0.0575 0.565281,0.29475 l 26.936317,85.61538 c 0.0747,0.23751 -0.0572,0.49066 -0.29475,0.5655 -0.045,0.0141 -0.0906,0.0209 -0.13538,0.0209 z"
       id="path7377" />
    <path
       style="fill:#999999;stroke-width:0.26458332"
       inkscape:connector-curvature="0"
       d="m 99.547422,187.1006 c -0.201305,0 -0.384669,-0.13559 -0.43662,-0.33965 L 80.401899,111.19936 c -0.0613,-0.24126 0.08453,-0.4867 0.325787,-0.54811 0.242028,-0.061 0.486696,0.0845 0.548112,0.32578 l 18.708903,75.5616 c 0.06131,0.24125 -0.08453,0.48669 -0.325787,0.54811 -0.0373,0.009 -0.07473,0.0139 -0.111496,0.0139 z"
       id="path7379" />
    <polygon
       style="fill:#000080;stroke-width:0.59515762"
       points="86.34807,362.11717 156.57271,361.03722 169.50216,434.81112 87.36214,434.81112 "
       id="polygon7381"
       transform="matrix(0.4445601,0,0,0.4445601,12.247204,-56.007305)" />
    <polygon
       style="fill:#ffb6b6;stroke-width:0.59515762"
       points="194.26591,470.59655 176.56797,501.75497 197.11665,506.27891 205.68358,484.11776 "
       id="polygon7385"
       transform="matrix(0.4445601,0,0,0.4445601,12.247204,-56.007305)" />
    <path
       style="fill:#4d4d4d;stroke-width:0.26458332"
       inkscape:connector-curvature="0"
       d="m 93.568191,164.43784 c 0,0 -0.305719,-2.25893 -2.103071,-1.54209 -1.797352,0.71685 -6.9846,3.38089 -6.9846,3.38089 0,0 13.529578,21.98386 16.09722,20.95979 2.56765,-1.02405 -0.50603,-7.23836 -0.50603,-7.23836 l 0.67839,-10.98443 -7.181913,-4.5758 z"
       id="path7387" />
    <path
       style="fill:#2f2e41;stroke-width:0.26458332"
       inkscape:connector-curvature="0"
       d="m 63.814931,126.32291 c 0,0 -2.807197,12.91311 5.80154,17.40463 8.608738,4.49151 37.990739,-6.55013 37.990739,-6.55013 l -13.474547,20.18972 9.357327,3.76503 c 0,0 21.3347,-28.07197 19.83753,-32.56349 -1.49718,-4.49151 -11.60309,-4.8658 -11.60309,-4.8658 l -22.831873,1.12287 -5.988687,-1.87146 -19.088944,3.36864 z"
       id="path7389" />
    <polygon
       style="fill:#ffb6b6;stroke-width:0.59515762"
       points="168.08352,484.4253 140.26086,507.00768 157.75463,518.69879 173.79831,501.17426 "
       id="polygon7393"
       transform="matrix(0.4445601,0,0,0.4445601,12.247204,-56.007305)" />
    <path
       style="fill:#4d4d4d;stroke-width:0.26458332"
       inkscape:connector-curvature="0"
       d="m 78.185354,167.98056 c 0,0 0.537224,-2.21532 -1.397755,-2.20164 -1.934979,0.0137 -7.736017,0.60754 -7.736017,0.60754 0,0 4.602509,25.39992 7.366765,25.38039 2.764257,-0.0195 2.162576,-6.92627 2.162576,-6.92627 l 4.628925,-9.98454 -5.024494,-6.87549 z"
       id="path7395" />
    <path
       style="fill:#2f2e41;stroke-width:0.26458332"
       inkscape:connector-curvature="0"
       d="m 64.341201,121.65191 c 0,0 -7.313609,11.00636 -0.929428,18.32253 6.384181,7.31617 37.769757,7.72309 37.769757,7.72309 l -19.89749,13.90246 7.3458,6.91189 c 0,0 30.08701,-18.38417 30.32685,-23.11256 0.23986,-4.7284 -9.03704,-8.75439 -9.03704,-8.75439 l -21.67523,-7.26223 -4.897137,-3.92235 -19.006086,-3.80844 z"
       id="path7397" />
    <path
       id="path7401"
       d="m 83.129333,96.158673 c 0,0 -7.111565,-2.62005 -10.480202,-2.62005 -0.321888,0 -0.640051,0.03743 -0.958187,0.104791 -2.155929,0.456648 -4.139681,2.309406 -5.090377,3.31998 -0.370568,0.396747 -0.583894,0.662505 -0.583894,0.662505 0,0 0.02245,-0.258262 0.06737,-0.711167 0.220822,-2.380499 1.036777,-10.191989 2.500273,-15.192539 0.523998,-1.785384 1.126626,-3.21144 1.81906,-3.903873 1.613202,-1.61695 2.35804,-3.555783 2.702383,-5.00055 0.29196,-1.238931 0.29196,-2.111016 0.29196,-2.111016 L 70.669129,69.53147 70.16382,66.230203 c -0.08983,0.389256 -0.505287,1.149081 -1.901392,2.605086 -0.119778,0.123499 -0.250794,0.228313 -0.389279,0.318141 -2.013698,1.265111 -6.119681,-0.935733 -8.331768,-2.320622 0.920768,-3.200201 2.590123,-6.127176 5.621889,-6.606256 7.111566,-1.122879 7.111566,-5.240101 11.603086,-0.748586 0.370545,0.370545 0.744838,0.726131 1.119131,1.070474 1.437294,2.747319 1.961292,6.430353 2.148439,8.990526 0.134764,1.792853 0.101066,3.039257 0.101066,3.039257 0,0 1.871465,11.228792 4.865808,13.47455 2.994343,2.245758 -1.871465,10.105909 -1.871465,10.105909 z"
       inkscape:connector-curvature="0"
       style="fill:#2f2e41;stroke-width:0.26458332" />
    <polygon
       id="polygon7403"
       points="142.6045,301.87125 128.29151,301.87125 116.91538,318.55786 142.6045,325.44557 "
       style="fill:#ffb6b6;stroke-width:0.59515762"
       transform="matrix(0.4445601,0,0,0.4445601,12.247204,-56.007305)" />
    <polygon
       id="polygon7405"
       points="142.6045,301.87125 128.29151,301.87125 116.91538,318.55786 142.6045,325.44557 "
       style="opacity:0.1;stroke-width:0.59515762"
       transform="matrix(0.4445601,0,0,0.4445601,12.247204,-56.007305)" />
    <path
       id="path7407"
       d="M 76.353744,85.337827 65.499249,80.846312 c 0,0 -14.597429,6.36298 -13.47455,18.714651 1.122879,12.351667 11.603085,33.686377 11.603085,33.686377 l 20.960409,-8.98303 -2.245758,-23.95476 -5.988687,-14.971719 z"
       inkscape:connector-curvature="0"
       style="fill:#008080;stroke-width:0.26458332" />
    <circle
       id="circle7409"
       r="9.5762873"
       cy="71.928238"
       cx="71.699783"
       style="fill:#ffb6b6;stroke-width:0.26458332" />
    <path
       id="path7411"
       d="m 84.626505,68.460987 c -1.871465,1.871465 -3.368636,3.74293 -3.368636,3.74293 l -0.748586,-2.994344 c 0,0 -0.172183,0.127247 -0.475359,0.329379 -1.186505,0.808464 -4.371742,2.840873 -6.928167,3.278809 -1.137843,0.194615 -2.148439,0.07109 -2.807197,-0.613844 -1.396106,-1.456006 -1.811565,-2.21583 -1.901393,-2.605087 l -0.505309,3.301268 -2.72859,1.175283 c 0,0 0,4.109732 2.994344,7.111566 0.14598,0.14598 0.288212,0.325631 0.426697,0.535237 1.429803,2.15593 2.455364,7.433454 3.106626,11.921222 0.576404,3.989975 0.853378,7.351124 0.853378,7.351124 0,0 -2.833377,-3.548295 -5.943751,-4.031145 -0.172182,-0.02618 -0.344365,-0.04491 -0.516525,-0.04866 -0.05615,-0.0075 -0.11603,-0.0075 -0.172183,-0.0075 -3.368636,0 -10.480202,2.62005 -10.480202,2.62005 0,0 -4.865808,-7.860151 -1.871465,-10.105909 2.994344,-2.245758 4.865809,-13.47455 4.865809,-13.47455 0,0 -0.123521,-4.80593 1.115387,-9.114047 0.920769,-3.200201 2.590123,-6.127176 5.62189,-6.606256 7.111565,-1.122879 7.111565,-5.240101 11.603085,-0.748586 0.370545,0.370545 0.744838,0.726131 1.119131,1.070474 4.184591,3.847743 8.459036,6.194545 6.741021,7.912561 z"
       inkscape:connector-curvature="0"
       style="fill:#2f2e41;stroke-width:0.26458332" />
    <rect
       id="rect7413"
       height="70.240494"
       width="3.5564809"
       y="118.70481"
       x="39.069248"
       style="fill:#3f3d56;stroke-width:0.26458332" />
    <rect
       id="rect7415"
       height="70.240494"
       width="3.5564809"
       y="118.70481"
       x="125.3139"
       style="fill:#3f3d56;stroke-width:0.26458332" />
    <rect
       id="rect7417"
       height="23.561686"
       width="23.561686"
       y="88.919289"
       x="82.636139"
       style="fill:#83c5be;stroke-width:0.26458332;fill-opacity:1" />
    <polygon
       style="fill:#ffb6b6;stroke-width:0.59515762"
       points="127.78436,382.35224 149.33339,368.64833 158.09421,373.93283 127.78436,408.76065 "
       id="polygon7419"
       transform="matrix(0.4445601,0,0,0.4445601,12.247204,-56.007305)" />
    <path
       style="fill:#83c5be;stroke-width:0.26458332;fill-opacity:1"
       inkscape:connector-curvature="0"
       d="m 55.954775,90.390786 c 0,0 -6.36298,1.497172 -3.368637,10.105914 2.994344,8.60873 12.725965,26.5748 15.720308,25.45192 2.994343,-1.12288 3.368636,-12.35167 3.368636,-12.35167 0,0 -0.374293,0.37429 -1.871464,-1.12288 -1.497172,-1.49717 -1.497172,-0.81343 -1.497172,-2.46533 0,-1.6519 -1.224559,-2.87645 -1.224559,-2.87645 l -1.395492,-2.89267 c 0,0 0,-13.47455 -5.614393,-14.223136 -5.614394,-0.748586 -4.117223,0.374293 -4.117223,0.374293 z"
       id="path7421" />
    <ellipse
       style="fill:#ffb6b6;stroke-width:0.26458332"
       cx="-17.071638"
       cy="134.31543"
       rx="6.3629799"
       ry="3.9300759"
       transform="rotate(-45)"
       id="ellipse7423" />
    <rect
       id="rect7427"
       height="8.0020819"
       width="107.58354"
       y="116.03745"
       x="28.399807"
       style="fill:#3f3d56;stroke-width:0.26458332" />
    <rect
       style="fill:#3f3d56;stroke-width:0.26458332"
       x="227.11816"
       y="52.020798"
       width="20.449764"
       height="11.114002"
       rx="1.3572912"
       ry="1.3572912"
       id="rect7431" />
    <rect
       style="fill:#83c5be;stroke-width:0.26458332;fill-opacity:1"
       x="260.46017"
       y="58.573677"
       width="20.449764"
       height="4.5611196"
       rx="1.3572912"
       ry="1.3572912"
       id="rect7433" />
  </g>
</svg>
